<svg xmlns="http://www.w3.org/2000/svg" version="1.1" xmlns:xlink="http://www.w3.org/1999/xlink" xmlns:svgjs="http://svgjs.com/svgjs" width="500" height="300" preserveAspectRatio="none" viewBox="0 0 500 300"><g mask="url(&quot;#SvgjsMask1312&quot;)" fill="none"><rect width="500" height="300" x="0" y="0" fill="#0e2a47"></rect><path d="M41.24 -46.43L82.81 -22.43L82.81 25.57L41.24 49.57L-0.33 25.57L-0.33 -22.43zM41.24 97.57L82.81 121.57L82.81 169.57L41.24 193.57L-0.33 169.57L-0.33 121.57zM124.38 -46.43L165.95 -22.43L165.95 25.57L124.38 49.57L82.81 25.57L82.81 -22.43zM249.09 25.57L290.66 49.57L290.66 97.57L249.09 121.57L207.52 97.57L207.52 49.57zM207.52 97.57L249.09 121.57L249.09 169.57L207.52 193.57L165.95 169.57L165.95 121.57zM249.09 169.57L290.66 193.57L290.66 241.57L249.09 265.57L207.52 241.57L207.52 193.57zM207.52 241.57L249.09 265.57L249.09 313.57L207.52 337.57L165.95 313.57L165.95 265.57zM290.66 -46.43L332.23 -22.43L332.23 25.57L290.66 49.57L249.09 25.57L249.09 -22.43zM290.66 97.57L332.23 121.57L332.23 169.57L290.66 193.57L249.09 169.57L249.09 121.57zM332.23 169.57L373.8 193.57L373.8 241.57L332.23 265.57L290.66 241.57L290.66 193.57zM415.37 169.57L456.94 193.57L456.94 241.57L415.37 265.57L373.8 241.57L373.8 193.57zM581.66 169.57L623.23 193.57L623.23 241.57L581.66 265.57L540.08 241.57L540.08 193.57z" stroke="#03305d" stroke-width="2"></path><path d="M36.44 -46.43 a4.8 4.8 0 1 0 9.6 0 a4.8 4.8 0 1 0 -9.6 0zM78.01 -22.43 a4.8 4.8 0 1 0 9.6 0 a4.8 4.8 0 1 0 -9.6 0zM78.01 25.57 a4.8 4.8 0 1 0 9.6 0 a4.8 4.8 0 1 0 -9.6 0zM36.44 49.57 a4.8 4.8 0 1 0 9.6 0 a4.8 4.8 0 1 0 -9.6 0zM-5.13 25.57 a4.8 4.8 0 1 0 9.6 0 a4.8 4.8 0 1 0 -9.6 0zM-5.13 -22.43 a4.8 4.8 0 1 0 9.6 0 a4.8 4.8 0 1 0 -9.6 0zM36.44 97.57 a4.8 4.8 0 1 0 9.6 0 a4.8 4.8 0 1 0 -9.6 0zM78.01 121.57 a4.8 4.8 0 1 0 9.6 0 a4.8 4.8 0 1 0 -9.6 0zM78.01 169.57 a4.8 4.8 0 1 0 9.6 0 a4.8 4.8 0 1 0 -9.6 0zM36.44 193.57 a4.8 4.8 0 1 0 9.6 0 a4.8 4.8 0 1 0 -9.6 0zM-5.13 169.57 a4.8 4.8 0 1 0 9.6 0 a4.8 4.8 0 1 0 -9.6 0zM-5.13 121.57 a4.8 4.8 0 1 0 9.6 0 a4.8 4.8 0 1 0 -9.6 0zM119.58 -46.43 a4.8 4.8 0 1 0 9.6 0 a4.8 4.8 0 1 0 -9.6 0zM161.15 -22.43 a4.8 4.8 0 1 0 9.6 0 a4.8 4.8 0 1 0 -9.6 0zM161.15 25.57 a4.8 4.8 0 1 0 9.6 0 a4.8 4.8 0 1 0 -9.6 0zM119.58 49.57 a4.8 4.8 0 1 0 9.6 0 a4.8 4.8 0 1 0 -9.6 0zM244.29 25.57 a4.8 4.8 0 1 0 9.6 0 a4.8 4.8 0 1 0 -9.6 0zM285.86 49.57 a4.8 4.8 0 1 0 9.6 0 a4.8 4.8 0 1 0 -9.6 0zM285.86 97.57 a4.8 4.8 0 1 0 9.6 0 a4.8 4.8 0 1 0 -9.6 0zM244.29 121.57 a4.8 4.8 0 1 0 9.6 0 a4.8 4.8 0 1 0 -9.6 0zM202.72 97.57 a4.8 4.8 0 1 0 9.6 0 a4.8 4.8 0 1 0 -9.6 0zM202.72 49.57 a4.8 4.8 0 1 0 9.6 0 a4.8 4.8 0 1 0 -9.6 0zM244.29 169.57 a4.8 4.8 0 1 0 9.6 0 a4.8 4.8 0 1 0 -9.6 0zM202.72 193.57 a4.8 4.8 0 1 0 9.6 0 a4.8 4.8 0 1 0 -9.6 0zM161.15 169.57 a4.8 4.8 0 1 0 9.6 0 a4.8 4.8 0 1 0 -9.6 0zM161.15 121.57 a4.8 4.8 0 1 0 9.6 0 a4.8 4.8 0 1 0 -9.6 0zM285.86 193.57 a4.8 4.8 0 1 0 9.6 0 a4.8 4.8 0 1 0 -9.6 0zM285.86 241.57 a4.8 4.8 0 1 0 9.6 0 a4.8 4.8 0 1 0 -9.6 0zM244.29 265.57 a4.8 4.8 0 1 0 9.6 0 a4.8 4.8 0 1 0 -9.6 0zM202.72 241.57 a4.8 4.8 0 1 0 9.6 0 a4.8 4.8 0 1 0 -9.6 0zM244.29 313.57 a4.8 4.8 0 1 0 9.6 0 a4.8 4.8 0 1 0 -9.6 0zM202.72 337.57 a4.8 4.8 0 1 0 9.6 0 a4.8 4.8 0 1 0 -9.6 0zM161.15 313.57 a4.8 4.8 0 1 0 9.6 0 a4.8 4.8 0 1 0 -9.6 0zM161.15 265.57 a4.8 4.8 0 1 0 9.6 0 a4.8 4.8 0 1 0 -9.6 0zM285.86 -46.43 a4.8 4.8 0 1 0 9.6 0 a4.8 4.8 0 1 0 -9.6 0zM327.43 -22.43 a4.8 4.8 0 1 0 9.6 0 a4.8 4.8 0 1 0 -9.6 0zM327.43 25.57 a4.8 4.8 0 1 0 9.6 0 a4.8 4.8 0 1 0 -9.6 0zM244.29 -22.43 a4.8 4.8 0 1 0 9.6 0 a4.8 4.8 0 1 0 -9.6 0zM327.43 121.57 a4.8 4.8 0 1 0 9.6 0 a4.8 4.8 0 1 0 -9.6 0zM327.43 169.57 a4.8 4.8 0 1 0 9.6 0 a4.8 4.8 0 1 0 -9.6 0zM369 193.57 a4.8 4.8 0 1 0 9.6 0 a4.8 4.8 0 1 0 -9.6 0zM369 241.57 a4.8 4.8 0 1 0 9.6 0 a4.8 4.8 0 1 0 -9.6 0zM327.43 265.57 a4.8 4.8 0 1 0 9.6 0 a4.8 4.8 0 1 0 -9.6 0zM410.57 169.57 a4.8 4.8 0 1 0 9.6 0 a4.8 4.8 0 1 0 -9.6 0zM452.14 193.57 a4.8 4.8 0 1 0 9.6 0 a4.8 4.8 0 1 0 -9.6 0zM452.14 241.57 a4.8 4.8 0 1 0 9.6 0 a4.8 4.8 0 1 0 -9.6 0zM410.57 265.57 a4.8 4.8 0 1 0 9.6 0 a4.8 4.8 0 1 0 -9.6 0zM576.86 169.57 a4.8 4.8 0 1 0 9.6 0 a4.8 4.8 0 1 0 -9.6 0zM618.43 193.57 a4.8 4.8 0 1 0 9.6 0 a4.8 4.8 0 1 0 -9.6 0zM618.43 241.57 a4.8 4.8 0 1 0 9.6 0 a4.8 4.8 0 1 0 -9.6 0zM576.86 265.57 a4.8 4.8 0 1 0 9.6 0 a4.8 4.8 0 1 0 -9.6 0zM535.28 241.57 a4.8 4.8 0 1 0 9.6 0 a4.8 4.8 0 1 0 -9.6 0zM535.28 193.57 a4.8 4.8 0 1 0 9.6 0 a4.8 4.8 0 1 0 -9.6 0z" fill="#03305d"></path><path d="M0 0 " stroke="rgba(6, 80, 156, 0.93)" stroke-width="2"></path></g><defs><mask id="SvgjsMask1312"><rect width="500" height="300" fill="#ffffff"></rect></mask></defs></svg>